# xmcd
#
# Track frame offsets:
#	187
#	15917
#	35312
#	85060
#	134712
#	184437
#	233717
#
# Disc length: 3254 seconds
#
# Revision: 1
# Processed by: cddbd v1.5.1PL0 Copyright (c) Steve Scherf et al.
# Submitted via: CDex 1.50Beta5
#
DISCID=510cb407
DTITLE=Various Artist - 爆れつハンター?ザ・マンスリー・コレクション 4th Season
DYEAR=1900
DGENRE=Anime
TTITLE0=あかほりさとる大先生の華麗なる野望・開戦編
TTITLE1=君がいなきゃ 終わらない
TTITLE2=第12話「俺ってバーニー?」
TTITLE3=第13話「アイアンレースでア、イヤ(ア)〜ン!」
TTITLE4=第14話「11月のラプソディ」
TTITLE5=第15話「労働に感謝なのだ!」
TTITLE6=あかほりさとる大先生の華麗なる野望・脱線編
EXTD=
EXTT0=
EXTT1=
EXTT2=
EXTT3=
EXTT4=
EXTT5=
EXTT6=
PLAYORDER=
